<svg width="40" height="40" viewBox="0 0 72 73" fill="none" xmlns="http://www.w3.org/2000/svg">
<circle cx="36" cy="36.89" r="36" fill="white"/>
<path fill-rule="evenodd" clip-rule="evenodd" d="M35.6262 29.7372C35.5068 30.2009 35.034 30.48 34.5703 30.3605C32.5938 29.8514 30.8818 29.9116 29.3573 30.4009C27.8261 30.8923 26.4286 31.8345 25.1164 33.1722C24.781 33.5141 24.2321 33.5193 23.8902 33.184C23.5484 32.8487 23.5431 32.2997 23.8784 31.9579C25.3353 30.4727 26.965 29.3474 28.8274 28.7497C30.6965 28.1499 32.7445 28.0995 35.0029 28.6812C35.4666 28.8007 35.7457 29.2734 35.6262 29.7372Z" fill="#D6AD61"/>
<path fill-rule="evenodd" clip-rule="evenodd" d="M33.584 21.57C36.1329 21.2662 38.9834 22.2026 42.1312 24.6602L44.842 26.7767C45.2194 27.0714 45.2865 27.6162 44.9918 27.9937L43.7856 29.5387C43.7767 29.5501 43.7675 29.5613 43.758 29.5722C40.8966 32.881 38.1203 34.7255 35.4102 35.2459C32.6638 35.7732 30.1472 34.9112 27.9023 33.1584L25.8668 31.5692C25.6696 31.4153 25.5486 31.1837 25.5347 30.9339C25.3722 28.0093 26.7461 26.2496 27.3795 25.4383L27.3819 25.4352L27.3832 25.4335C28.9832 23.3946 31.0348 21.8738 33.584 21.57Z" fill="#D6AD61"/>
<path fill-rule="evenodd" clip-rule="evenodd" d="M18.2132 49.8923C16.3563 48.1199 15.2639 45.3255 15.1554 41.3335L15.0621 37.8956C15.0491 37.4169 15.4266 37.0183 15.9053 37.0053L17.8646 36.9521C17.8791 36.9517 17.8936 36.9516 17.9081 36.952C22.2814 37.0525 25.4712 38.0194 27.5977 39.7782C29.7527 41.5606 30.6898 44.0502 30.7671 46.8973L30.8373 49.4787C30.844 49.7288 30.7425 49.9696 30.5587 50.1393C28.4066 52.1263 26.175 52.187 25.1461 52.2149L25.1421 52.215L25.14 52.2151C22.549 52.2791 20.0702 51.6649 18.2132 49.8923Z" fill="#D6AD61"/>
<path fill-rule="evenodd" clip-rule="evenodd" d="M47.1112 50.9901C44.7916 52.0896 41.7914 52.1095 38.0249 50.7819L34.7813 49.6386C34.3297 49.4794 34.0926 48.9843 34.2518 48.5327L34.9034 46.684C34.9082 46.6704 34.9134 46.6568 34.9189 46.6434C36.578 42.5958 38.6225 39.9634 41.0259 38.6072C43.4616 37.2329 46.1217 37.249 48.8078 38.1957L51.2433 39.0542C51.4792 39.1374 51.6677 39.3184 51.7604 39.5507C52.8456 42.2714 52.1034 44.377 51.7613 45.3477L51.76 45.3514L51.7593 45.3534C50.8917 47.7957 49.431 49.8905 47.1112 50.9901Z" fill="#D6AD61"/>
</svg> 