<svg width="40" height="40" viewBox="0 0 72 73" fill="none" xmlns="http://www.w3.org/2000/svg">
  <circle cx="36" cy="36.89" r="36" fill="white"/>
  <path d="M40.5 18.89H31.5C30.12 18.89 29 20.01 29 21.39V26.39C29 27.77 30.12 28.89 31.5 28.89H32.5V39.89C32.5 42.65 34.74 44.89 37.5 44.89H40C42.76 44.89 45 42.65 45 39.89V28.89H45.5C46.88 28.89 48 27.77 48 26.39V21.39C48 20.01 46.88 18.89 45.5 18.89H40.5ZM35 28.89H37.5C38.88 28.89 40 27.77 40 26.39V24.89H42.5V39.89C42.5 41.27 41.38 42.39 40 42.39H37.5C36.12 42.39 35 41.27 35 39.89V28.89ZM45.5 26.39H43V24.89H45.5V26.39ZM31.5 26.39V24.89H34V26.39H31.5Z" fill="#D6AD61"/>
  <path d="M51.71 47.6L46.5 42.39L51.71 37.18C52.29 36.6 52.29 35.68 51.71 35.1C51.13 34.52 50.21 34.52 49.63 35.1L44.42 40.31L39.21 35.1C38.63 34.52 37.71 34.52 37.13 35.1C36.55 35.68 36.55 36.6 37.13 37.18L42.34 42.39L37.13 47.6C36.55 48.18 36.55 49.1 37.13 49.68C37.71 50.26 38.63 50.26 39.21 49.68L44.42 44.47L49.63 49.68C50.21 50.26 51.13 50.26 51.71 49.68C52.29 49.1 52.29 48.18 51.71 47.6Z" fill="#D6AD61"/>
  <path d="M36 51.89C35.17 51.89 34.5 52.56 34.5 53.39C34.5 54.22 35.17 54.89 36 54.89H45C45.83 54.89 46.5 54.22 46.5 53.39C46.5 52.56 45.83 51.89 45 51.89H36Z" fill="#D6AD61"/>
</svg> 