<svg width="40" height="40" viewBox="0 0 72 73" fill="none" xmlns="http://www.w3.org/2000/svg">
  <circle cx="36" cy="36.89" r="36" fill="white"/>
  <path d="M36 18.39C34.35 18.39 33 19.74 33 21.39V23.39H28.5C26.85 23.39 25.5 24.74 25.5 26.39V47.39C25.5 49.04 26.85 50.39 28.5 50.39H43.5C45.15 50.39 46.5 49.04 46.5 47.39V26.39C46.5 24.74 45.15 23.39 43.5 23.39H39V21.39C39 19.74 37.65 18.39 36 18.39ZM36 20.89C36.3 20.89 36.5 21.09 36.5 21.39V23.39H35.5V21.39C35.5 21.09 35.7 20.89 36 20.89ZM28.5 25.89H43.5C43.8 25.89 44 26.09 44 26.39V47.39C44 47.69 43.8 47.89 43.5 47.89H28.5C28.2 47.89 28 47.69 28 47.39V26.39C28 26.09 28.2 25.89 28.5 25.89Z" fill="#D6AD61"/>
  <path d="M31.5 53.39C30.67 53.39 30 54.06 30 54.89C30 55.72 30.67 56.39 31.5 56.39H40.5C41.33 56.39 42 55.72 42 54.89C42 54.06 41.33 53.39 40.5 53.39H31.5Z" fill="#D6AD61"/>
  <path d="M34.29 30.1C33.87 29.69 33.2 29.69 32.79 30.1C32.38 30.52 32.38 31.19 32.79 31.6L34.09 32.89H31.5C30.67 32.89 30 33.56 30 34.39C30 35.22 30.67 35.89 31.5 35.89H36C36.83 35.89 37.5 35.22 37.5 34.39V32.89C37.5 32.06 36.83 31.39 36 31.39C35.94 31.39 35.88 31.4 35.81 31.4C35.81 31.4 35.59 30.39 34.29 30.1Z" fill="#D6AD61"/>
  <path d="M38.2 37.1C37.78 37.51 37.78 38.17 38.2 38.59L39.39 39.89H36.91C36.15 39.89 35.51 40.46 35.37 41.2L34.89 43.49L33.72 40.55C33.44 39.8 32.65 39.39 31.85 39.55C31.05 39.72 30.5 40.45 30.5 41.29V42.89C30.5 43.72 31.17 44.39 32 44.39C32.83 44.39 33.5 43.72 33.5 42.89V42.51L35.68 47.78C35.98 48.57 36.75 49.06 37.6 48.96C38.44 48.85 39.08 48.19 39.17 47.34L40.01 42.89H40.5C41.33 42.89 42 42.22 42 41.39C42 40.56 41.33 39.89 40.5 39.89C40.14 39.89 39.82 40.02 39.59 40.2L39.68 40.3C39.68 40.3 39.78 38.29 38.2 37.1Z" fill="#D6AD61"/>
</svg> 