<svg width="40" height="40" viewBox="0 0 72 73" fill="none" xmlns="http://www.w3.org/2000/svg">
  <circle cx="36" cy="36.89" r="36" fill="white"/>
  <path d="M36 20.89C36.93 20.89 37.74 21.37 38.13 22.1L44 33.05L49.87 44C50.26 44.73 50.26 45.68 49.87 46.41C49.48 47.14 48.67 47.62 47.74 47.62H36H24.26C23.33 47.62 22.52 47.14 22.13 46.41C21.74 45.68 21.74 44.73 22.13 44L28 33.05L33.87 22.1C34.26 21.37 35.07 20.89 36 20.89ZM36 25.91L32.2 32.78L28.4 39.65L31.2 39.65L34 39.65H36H38L40.8 39.65L43.6 39.65L39.8 32.78L36 25.91Z" fill="#D6AD61"/>
  <path d="M29.62 52.89C28.69 52.89 27.73 52.89 27.73 52.89C27.73 52.89 27.73 51.93 27.73 51C27.73 50.07 28.69 50.07 29.62 50.07H42.37C43.3 50.07 44.27 50.07 44.27 51C44.27 51.93 44.27 52.89 43.3 52.89C42.37 52.89 29.62 52.89 29.62 52.89Z" fill="#D6AD61"/>
</svg> 