<svg width="31" height="31" viewBox="0 0 31 31" fill="none" xmlns="http://www.w3.org/2000/svg">
<g id="Group 1">
<path id="Line 1 (Stroke)" fill-rule="evenodd" clip-rule="evenodd" d="M5.50891 0.5C6.33734 0.5 7.00891 1.17157 7.00891 2L7.00891 29C7.00891 29.8284 6.33734 30.5 5.50891 30.5C4.68048 30.5 4.00891 29.8284 4.00891 29L4.00891 2C4.00891 1.17157 4.68048 0.5 5.50891 0.5Z" fill="#D6AD61"/>
<path id="Line 4 (Stroke)" fill-rule="evenodd" clip-rule="evenodd" d="M0.634155 25.6251C0.634155 24.7967 1.30573 24.1251 2.13416 24.1251L29.1342 24.1251C29.9626 24.1251 30.6342 24.7967 30.6342 25.6251C30.6342 26.4535 29.9626 27.1251 29.1342 27.1251L2.13416 27.1251C1.30573 27.1251 0.634155 26.4535 0.634155 25.6251Z" fill="#D6AD61"/>
<path id="Line 3 (Stroke)" fill-rule="evenodd" clip-rule="evenodd" d="M25.7589 0.5C26.5873 0.5 27.2589 1.17157 27.2589 2L27.2589 29C27.2589 29.8284 26.5873 30.5 25.7589 30.5C24.9305 30.5 24.2589 29.8284 24.2589 29L24.2589 2C24.2589 1.17157 24.9305 0.5 25.7589 0.5Z" fill="#D6AD61"/>
<path id="Line 5 (Stroke)" fill-rule="evenodd" clip-rule="evenodd" d="M0.633789 5.37512C0.633789 4.54669 1.30536 3.87512 2.13379 3.87512L29.1338 3.87512C29.9622 3.87512 30.6338 4.54669 30.6338 5.37512C30.6338 6.20355 29.9622 6.87512 29.1338 6.87512L2.13379 6.87512C1.30536 6.87512 0.633789 6.20355 0.633789 5.37512Z" fill="#D6AD61"/>
<path id="Line 2 (Stroke)" fill-rule="evenodd" clip-rule="evenodd" d="M15.634 0.5C16.4625 0.5 17.134 1.17157 17.134 2L17.134 29C17.134 29.8284 16.4625 30.5 15.634 30.5C14.8056 30.5 14.134 29.8284 14.134 29L14.134 2C14.134 1.17157 14.8056 0.5 15.634 0.5Z" fill="#D6AD61"/>
<path id="Line 6 (Stroke)" fill-rule="evenodd" clip-rule="evenodd" d="M0.634155 15.5004C0.634155 14.672 1.30573 14.0004 2.13416 14.0004L29.1342 14.0004C29.9626 14.0004 30.6342 14.672 30.6342 15.5004C30.6342 16.3289 29.9626 17.0004 29.1342 17.0004L2.13416 17.0004C1.30573 17.0004 0.634155 16.3289 0.634155 15.5004Z" fill="#D6AD61"/>
</g>
</svg>
