<svg width="40" height="40" viewBox="0 0 40 40" fill="none" xmlns="http://www.w3.org/2000/svg">
<g id="Icon-100% vegan">
<path id="Vector (Stroke)" fill-rule="evenodd" clip-rule="evenodd" d="M4.28545 7.90455C4.52224 7.5099 5.03412 7.38193 5.42877 7.61872C6.70414 8.38394 7.72975 10.0024 8.61815 11.8837C9.52684 13.808 10.3736 16.1937 11.2073 18.6948C11.4881 19.5372 11.7674 20.3921 12.0474 21.249C13.4491 25.5392 14.8663 29.8766 16.5618 32.9286C16.7306 33.2324 16.875 33.4629 16.9965 33.6333C17.0022 33.6164 17.0081 33.5988 17.014 33.5807C17.1986 33.0115 17.3671 32.1477 17.5716 31.0201C17.6005 30.8607 17.63 30.6968 17.6603 30.5288C17.8395 29.5333 18.0445 28.3944 18.3051 27.1927C19.5039 21.6639 21.9894 14.2236 29.4148 12.3149C29.8605 12.2003 30.3148 12.4687 30.4293 12.9145C30.5439 13.3602 30.2755 13.8145 29.8297 13.9291C23.4663 15.5648 21.1407 21.9802 19.9339 27.5459C19.6801 28.7164 19.4808 29.8234 19.3014 30.8197C19.2709 30.9889 19.241 31.1549 19.2115 31.3175C19.0127 32.4141 18.8255 33.3977 18.5993 34.0949C18.4885 34.4364 18.3435 34.7921 18.1302 35.0673C17.9005 35.3637 17.4911 35.6773 16.9245 35.5863C16.4655 35.5127 16.1244 35.1948 15.8921 34.9252C15.6365 34.6285 15.3766 34.2271 15.1049 33.738C13.3234 30.5313 11.8439 25.9987 10.4451 21.7137C10.1696 20.8694 9.89712 20.0348 9.62613 19.2218C8.79317 16.7229 7.97321 14.4211 7.11107 12.5954C6.22863 10.7267 5.37925 9.53266 4.57128 9.04788C4.17663 8.81109 4.04866 8.2992 4.28545 7.90455Z" fill="white"/>
<path id="Vector (Stroke)_2" fill-rule="evenodd" clip-rule="evenodd" d="M24.8003 7.08212C26.7759 5.60435 29.5985 5.01389 33.3995 5.5468L36.6729 6.00574C37.1287 6.06964 37.4464 6.49093 37.3825 6.94671L37.1209 8.81234C37.119 8.82613 37.1167 8.83988 37.1141 8.85355C36.3224 12.9826 34.898 15.8521 32.8923 17.5876C30.8598 19.3463 28.3509 19.8381 25.64 19.458L23.1821 19.1134C22.944 19.0801 22.7319 18.9455 22.6004 18.7442C21.0597 16.388 21.3576 14.2631 21.4949 13.2835L21.4955 13.2797L21.4957 13.2777C21.8476 10.8117 22.8245 8.56001 24.8003 7.08212ZM23.1458 13.5121C23.0286 14.3487 22.8249 15.8205 23.8018 17.5174L25.8714 17.8075C28.2314 18.1384 30.2189 17.6969 31.8018 16.3272C33.4088 14.9367 34.7172 12.4887 35.4733 8.56011L35.6163 7.54056L33.1681 7.19733C29.6296 6.70123 27.3033 7.2912 25.7986 8.41673C24.2943 9.54197 23.4594 11.3161 23.1458 13.5121Z" fill="white"/>
</g>
</svg>
