<svg width="21" height="20" viewBox="0 0 21 20" fill="none" xmlns="http://www.w3.org/2000/svg">
<g clip-path="url(#clip0_71_5557)">
<g clip-path="url(#clip1_71_5557)">
<mask id="mask0_71_5557" style="mask-type:luminance" maskUnits="userSpaceOnUse" x="1" y="0" width="19" height="20">
<path d="M19.0417 8.33337H10.5V11.875H15.4167C14.9584 14.125 13.0417 15.4167 10.5 15.4167C7.50004 15.4167 5.08337 13 5.08337 10C5.08337 7.00004 7.50004 4.58337 10.5 4.58337C11.7917 4.58337 12.9584 5.04171 13.875 5.79171L16.5417 3.12504C14.9167 1.70837 12.8334 0.833374 10.5 0.833374C5.41671 0.833374 1.33337 4.91671 1.33337 10C1.33337 15.0834 5.41671 19.1667 10.5 19.1667C15.0834 19.1667 19.25 15.8334 19.25 10C19.25 9.45837 19.1667 8.87504 19.0417 8.33337Z" fill="white"/>
</mask>
<g mask="url(#mask0_71_5557)">
<path d="M0.5 15.4167V4.58337L7.58333 10L0.5 15.4167Z" fill="#FBBC05"/>
</g>
<mask id="mask1_71_5557" style="mask-type:luminance" maskUnits="userSpaceOnUse" x="1" y="0" width="19" height="20">
<path d="M19.0417 8.33337H10.5V11.875H15.4167C14.9584 14.125 13.0417 15.4167 10.5 15.4167C7.50004 15.4167 5.08337 13 5.08337 10C5.08337 7.00004 7.50004 4.58337 10.5 4.58337C11.7917 4.58337 12.9584 5.04171 13.875 5.79171L16.5417 3.12504C14.9167 1.70837 12.8334 0.833374 10.5 0.833374C5.41671 0.833374 1.33337 4.91671 1.33337 10C1.33337 15.0834 5.41671 19.1667 10.5 19.1667C15.0834 19.1667 19.25 15.8334 19.25 10C19.25 9.45837 19.1667 8.87504 19.0417 8.33337Z" fill="white"/>
</mask>
<g mask="url(#mask1_71_5557)">
<path d="M0.5 4.58333L7.58333 10L10.5 7.45833L20.5 5.83333V0H0.5V4.58333Z" fill="#EA4335"/>
</g>
<mask id="mask2_71_5557" style="mask-type:luminance" maskUnits="userSpaceOnUse" x="1" y="0" width="19" height="20">
<path d="M19.0417 8.33337H10.5V11.875H15.4167C14.9584 14.125 13.0417 15.4167 10.5 15.4167C7.50004 15.4167 5.08337 13 5.08337 10C5.08337 7.00004 7.50004 4.58337 10.5 4.58337C11.7917 4.58337 12.9584 5.04171 13.875 5.79171L16.5417 3.12504C14.9167 1.70837 12.8334 0.833374 10.5 0.833374C5.41671 0.833374 1.33337 4.91671 1.33337 10C1.33337 15.0834 5.41671 19.1667 10.5 19.1667C15.0834 19.1667 19.25 15.8334 19.25 10C19.25 9.45837 19.1667 8.87504 19.0417 8.33337Z" fill="white"/>
</mask>
<g mask="url(#mask2_71_5557)">
<path d="M0.5 15.4167L13 5.83333L16.2917 6.25L20.5 0V20H0.5V15.4167Z" fill="#34A853"/>
</g>
<mask id="mask3_71_5557" style="mask-type:luminance" maskUnits="userSpaceOnUse" x="1" y="0" width="19" height="20">
<path d="M19.0417 8.33337H10.5V11.875H15.4167C14.9584 14.125 13.0417 15.4167 10.5 15.4167C7.50004 15.4167 5.08337 13 5.08337 10C5.08337 7.00004 7.50004 4.58337 10.5 4.58337C11.7917 4.58337 12.9584 5.04171 13.875 5.79171L16.5417 3.12504C14.9167 1.70837 12.8334 0.833374 10.5 0.833374C5.41671 0.833374 1.33337 4.91671 1.33337 10C1.33337 15.0834 5.41671 19.1667 10.5 19.1667C15.0834 19.1667 19.25 15.8334 19.25 10C19.25 9.45837 19.1667 8.87504 19.0417 8.33337Z" fill="white"/>
</mask>
<g mask="url(#mask3_71_5557)">
<path d="M20.5001 20L7.58341 10L5.91675 8.75004L20.5001 4.58337V20Z" fill="#4285F4"/>
</g>
</g>
</g>
<defs>
<clipPath id="clip0_71_5557">
<rect width="20" height="20" fill="white" transform="translate(0.5)"/>
</clipPath>
<clipPath id="clip1_71_5557">
<rect width="20" height="20" fill="white" transform="translate(0.5)"/>
</clipPath>
</defs>
</svg>
