<svg width="14" height="14" viewBox="0 0 14 14" fill="none" xmlns="http://www.w3.org/2000/svg">
<path d="M6.99995 0.032959C7.43389 0.032959 7.78566 0.416715 7.78566 0.890102V6.03296H12.4999C12.9339 6.03296 13.2857 6.41671 13.2857 6.8901C13.2857 7.36349 12.9339 7.74724 12.4999 7.74724H7.78566V12.8901C7.78566 13.3635 7.43389 13.7472 6.99995 13.7472C6.56601 13.7472 6.21423 13.3635 6.21423 12.8901V7.74724H1.49995C1.06601 7.74724 0.714233 7.36349 0.714233 6.8901C0.714233 6.41671 1.06601 6.03296 1.49995 6.03296H6.21423V0.890102C6.21423 0.416715 6.56601 0.032959 6.99995 0.032959Z" fill="#212529"/>
</svg>
