<svg width="24" height="25" viewBox="0 0 24 25" fill="none" xmlns="http://www.w3.org/2000/svg">
<g clip-path="url(#clip0_71_6847)">
<path d="M11 24.3901C17.6274 24.3901 23 19.0176 23 12.3901C23 5.76272 17.6274 0.390137 11 0.390137C4.37258 0.390137 -1 5.76272 -1 12.3901C-1 19.0176 4.37258 24.3901 11 24.3901Z" fill="#D6AD61"/>
<path fill-rule="evenodd" clip-rule="evenodd" d="M15.707 10.4307C16.0975 10.0402 16.0975 9.40704 15.707 9.01653C15.3164 8.626 14.6833 8.626 14.2928 9.01653L10.3332 12.9761L8.37361 11.0165C7.98308 10.626 7.34993 10.626 6.9594 11.0165C6.56887 11.407 6.56887 12.0402 6.9594 12.4307L9.62606 15.0974C10.0166 15.488 10.6498 15.488 11.0403 15.0974L15.707 10.4307Z" fill="white"/>
</g>
<defs>
<clipPath id="clip0_71_6847">
<rect width="24" height="24" fill="white" transform="translate(0 0.390137)"/>
</clipPath>
</defs>
</svg>
