<svg width="112" height="18" viewBox="0 0 112 18" fill="none" xmlns="http://www.w3.org/2000/svg">
<path d="M4.06383 17.3731C3.62909 17.5965 3.13682 17.206 3.22435 16.7071L4.15779 11.3864L0.195168 7.6102C-0.175161 7.25729 0.0165395 6.61204 0.512652 6.54156L6.02344 5.7587L8.48057 0.891343C8.70191 0.452886 9.3015 0.452886 9.52285 0.891343L11.98 5.7587L17.4908 6.54156C17.9869 6.61204 18.1786 7.25729 17.8083 7.6102L13.8456 11.3864L14.7791 16.7071C14.8666 17.206 14.3743 17.5965 13.9396 17.3731L9.00171 14.8351L4.06383 17.3731Z" fill="#FCCE4E"/>
<path d="M27.5638 17.3731C27.1291 17.5965 26.6368 17.206 26.7243 16.7071L27.6578 11.3864L23.6952 7.6102C23.3248 7.25729 23.5165 6.61204 24.0127 6.54156L29.5234 5.7587L31.9806 0.891343C32.2019 0.452886 32.8015 0.452886 33.0228 0.891343L35.48 5.7587L40.9908 6.54156C41.4869 6.61204 41.6786 7.25729 41.3083 7.6102L37.3456 11.3864L38.2791 16.7071C38.3666 17.206 37.8743 17.5965 37.4396 17.3731L32.5017 14.8351L27.5638 17.3731Z" fill="#FCCE4E"/>
<path d="M51.0638 17.3731C50.6291 17.5965 50.1368 17.206 50.2243 16.7071L51.1578 11.3864L47.1952 7.6102C46.8248 7.25729 47.0165 6.61204 47.5127 6.54156L53.0234 5.7587L55.4806 0.891343C55.7019 0.452886 56.3015 0.452886 56.5228 0.891343L58.98 5.7587L64.4908 6.54156C64.9869 6.61204 65.1786 7.25729 64.8083 7.6102L60.8456 11.3864L61.7791 16.7071C61.8666 17.206 61.3743 17.5965 60.9396 17.3731L56.0017 14.8351L51.0638 17.3731Z" fill="#FCCE4E"/>
<path d="M74.5638 17.3731C74.1291 17.5965 73.6368 17.206 73.7243 16.7071L74.6578 11.3864L70.6952 7.6102C70.3248 7.25729 70.5165 6.61204 71.0127 6.54156L76.5234 5.7587L78.9806 0.891343C79.2019 0.452886 79.8015 0.452886 80.0228 0.891343L82.48 5.7587L87.9908 6.54156C88.4869 6.61204 88.6786 7.25729 88.3083 7.6102L84.3456 11.3864L85.2791 16.7071C85.3666 17.206 84.8743 17.5965 84.4396 17.3731L79.5017 14.8351L74.5638 17.3731Z" fill="#FCCE4E"/>
<path d="M98.0638 17.3731C97.6291 17.5965 97.1368 17.206 97.2243 16.7071L98.1578 11.3864L94.1952 7.6102C93.8248 7.25729 94.0165 6.61204 94.5127 6.54156L100.023 5.7587L102.481 0.891343C102.702 0.452886 103.302 0.452886 103.523 0.891343L105.98 5.7587L111.491 6.54156C111.987 6.61204 112.179 7.25729 111.808 7.6102L107.846 11.3864L108.779 16.7071C108.867 17.206 108.374 17.5965 107.94 17.3731L103.002 14.8351L98.0638 17.3731Z" fill="#FCCE4E"/>
</svg>
