<svg width="24" height="24" viewBox="0 0 24 24" fill="none" xmlns="http://www.w3.org/2000/svg">
<path id="Vector (Stroke)" fill-rule="evenodd" clip-rule="evenodd" d="M3.51472 3.51472C5.76515 1.26428 8.8174 0 12 0C15.1826 0 18.2348 1.26428 20.4853 3.51472C22.7357 5.76515 24 8.8174 24 12C24 15.1826 22.7357 18.2348 20.4853 20.4853C18.2348 22.7357 15.1826 24 12 24C8.8174 24 5.76515 22.7357 3.51472 20.4853C1.26428 18.2348 0 15.1826 0 12C0 8.8174 1.26428 5.76515 3.51472 3.51472ZM12 2.66667C9.52465 2.66667 7.15068 3.65 5.40034 5.40034C3.65 7.15068 2.66667 9.52465 2.66667 12C2.66667 14.4754 3.65 16.8493 5.40034 18.5997C7.15068 20.35 9.52465 21.3333 12 21.3333C14.4754 21.3333 16.8493 20.35 18.5997 18.5997C20.35 16.8493 21.3333 14.4754 21.3333 12C21.3333 9.52465 20.35 7.15068 18.5997 5.40034C16.8493 3.65 14.4754 2.66667 12 2.66667Z" fill="white"/>
</svg>
