<svg width="40" height="40" viewBox="0 0 40 40" fill="none" xmlns="http://www.w3.org/2000/svg">
<path fill-rule="evenodd" clip-rule="evenodd" d="M20.2528 13.5424C20.145 13.961 19.7182 14.213 19.2995 14.1052C17.5152 13.6455 15.9696 13.6999 14.5933 14.1416C13.211 14.5852 11.9494 15.4358 10.7647 16.6435C10.462 16.9521 9.9664 16.9569 9.65779 16.6541C9.34918 16.3514 9.34442 15.8558 9.64715 15.5472C10.9624 14.2064 12.4336 13.1905 14.115 12.651C15.8023 12.1094 17.6512 12.0639 19.69 12.5891C20.1087 12.697 20.3606 13.1238 20.2528 13.5424Z" fill="white"/>
<path fill-rule="evenodd" clip-rule="evenodd" d="M9.04528 25.6223C9.43679 25.439 9.90278 25.6078 10.0861 25.9993C10.8675 27.668 11.8933 28.8253 13.11 29.6056C14.3321 30.3892 15.7912 30.8207 17.4767 30.9656C17.9075 31.0026 18.2266 31.3818 18.1896 31.8125C18.1526 32.2432 17.7734 32.5624 17.3427 32.5254C15.4714 32.3645 13.7514 31.8766 12.265 30.9234C10.7732 29.9668 9.56114 28.5698 8.66833 26.6632C8.485 26.2716 8.65377 25.8057 9.04528 25.6223Z" fill="white"/>
<path fill-rule="evenodd" clip-rule="evenodd" d="M26.5258 26.3267C26.4947 25.8956 26.8191 25.5208 27.2503 25.4898C29.0881 25.3574 30.536 24.8138 31.7 23.9569C32.8692 23.0963 33.7943 21.8882 34.5328 20.3663C34.7216 19.9773 35.1899 19.815 35.5788 20.0037C35.9677 20.1925 36.13 20.6608 35.9413 21.0497C35.1214 22.7394 34.0501 24.1709 32.6281 25.2177C31.2009 26.2682 29.4627 26.9 27.3628 27.0513C26.9316 27.0823 26.5569 26.7579 26.5258 26.3267Z" fill="white"/>
<path fill-rule="evenodd" clip-rule="evenodd" d="M18.4091 6.16925C20.7102 5.89499 23.2836 6.7403 26.1253 8.95898L28.5726 10.8697C28.9134 11.1357 28.9739 11.6276 28.7079 11.9684L27.6189 13.3632C27.6108 13.3735 27.6025 13.3836 27.594 13.3935C25.0108 16.3805 22.5044 18.0457 20.0578 18.5155C17.5784 18.9916 15.3065 18.2133 13.2798 16.631L11.4422 15.1963C11.2642 15.0573 11.1549 14.8482 11.1424 14.6228C10.9957 11.9825 12.236 10.3939 12.8078 9.66149L12.81 9.65864L12.8112 9.65713C14.2556 7.81642 16.1078 6.44353 18.4091 6.16925ZM14.0434 10.6228C13.5551 11.2483 12.6982 12.3498 12.696 14.189L14.2432 15.397C16.0076 16.7746 17.8317 17.3488 19.7626 16.9781C21.7229 16.6017 23.937 15.2248 26.3971 12.3842L26.9922 11.6219L25.1619 10.1929C22.5165 8.12752 20.347 7.51487 18.5944 7.72376C16.8422 7.9326 15.3298 8.98367 14.0434 10.6228Z" fill="white"/>
<path fill-rule="evenodd" clip-rule="evenodd" d="M4.53272 31.7382C2.85637 30.1381 1.87015 27.6154 1.77227 24.0115L1.68797 20.9078C1.67623 20.4756 2.01704 20.1158 2.44918 20.1041L4.21808 20.056C4.23115 20.0557 4.24424 20.0556 4.25731 20.0559C8.20539 20.1467 11.0851 21.0196 13.0049 22.6074C14.9504 24.2165 15.7964 26.4641 15.8662 29.0343L15.9295 31.3648C15.9356 31.5905 15.8439 31.8079 15.678 31.9612C13.7352 33.755 11.7205 33.8097 10.7916 33.835L10.788 33.8351L10.7861 33.8351C8.44705 33.8929 6.20921 33.3384 4.53272 31.7382ZM10.7465 32.2701C11.5397 32.2485 12.9347 32.2082 14.3545 31.0391L14.3012 29.0768C14.2405 26.8392 13.5222 25.0669 12.0071 23.8138C10.4689 22.5415 7.99761 21.7105 4.24083 21.6215L3.27416 21.6478L3.3372 23.969C3.42833 27.324 4.33687 29.3871 5.61364 30.6058C6.8901 31.8241 8.66343 32.3214 10.7465 32.2701Z" fill="white"/>
<path fill-rule="evenodd" clip-rule="evenodd" d="M30.6212 32.7292C28.5271 33.7218 25.8185 33.7398 22.4183 32.5413L19.49 31.5092C19.0823 31.3654 18.8683 30.9184 19.012 30.5107L19.6003 28.8418C19.6046 28.8295 19.6093 28.8172 19.6142 28.8051C21.112 25.1511 22.9578 22.7745 25.1275 21.5503C27.3264 20.3096 29.7278 20.324 32.1528 21.1788L34.3515 21.9538C34.5645 22.0288 34.7347 22.1922 34.8184 22.402C35.798 24.8582 35.128 26.759 34.8192 27.6353L34.818 27.6388L34.8173 27.6406C34.0341 29.8454 32.7154 31.7365 30.6212 32.7292ZM33.3418 27.1174C33.6056 26.369 34.0672 25.052 33.4837 23.3078L31.6324 22.6552C29.5212 21.9111 27.6092 21.9475 25.8968 22.9137C24.1584 23.8946 22.4979 25.9048 21.0702 29.3808L20.7487 30.2929L22.9387 31.0648C26.1041 32.1805 28.3557 32.0706 29.9506 31.3146C31.5451 30.5587 32.6442 29.0809 33.3418 27.1174Z" fill="white"/>
</svg>
