<svg width="16" height="15" viewBox="0 0 16 15" fill="none" xmlns="http://www.w3.org/2000/svg">
<g clip-path="url(#clip0_71_5606)">
<g clip-path="url(#clip1_71_5606)">
<path fill-rule="evenodd" clip-rule="evenodd" d="M7.33442 0.31875C7.4938 0.1125 7.73755 0 8.00005 0C8.26255 0 8.5063 0.121875 8.66567 0.31875L9.39692 1.26562C9.45317 1.34063 9.53755 1.39688 9.6313 1.41562C9.72505 1.44375 9.8188 1.43438 9.91255 1.39688L11.0188 0.946875C11.2625 0.853125 11.525 0.871875 11.75 0.99375C11.975 1.125 12.125 1.35 12.1625 1.60313L12.3313 2.78437C12.3407 2.87812 12.3875 2.9625 12.4532 3.02813C12.5188 3.09375 12.6032 3.14062 12.6969 3.15L13.8782 3.31875C14.1313 3.35625 14.3563 3.50625 14.4875 3.73125C14.6188 3.95625 14.6375 4.22813 14.5344 4.4625L14.0844 5.56875C14.0469 5.65313 14.0469 5.75625 14.0657 5.85C14.0938 5.94375 14.1407 6.01875 14.2157 6.08437L15.1625 6.825C15.3688 6.98438 15.4813 7.22812 15.4813 7.49062C15.4813 7.75312 15.3594 7.99687 15.1625 8.15625L14.2157 8.8875C14.1407 8.94375 14.0844 9.02812 14.0657 9.12187C14.0375 9.21562 14.0469 9.30937 14.0844 9.40312L14.5344 10.5094C14.6282 10.7531 14.6094 11.0156 14.4875 11.2406C14.3563 11.4656 14.1313 11.6156 13.8782 11.6531L12.6969 11.8219C12.6032 11.8312 12.5188 11.8781 12.4532 11.9437C12.3875 12.0094 12.3407 12.0938 12.3313 12.1875L12.1625 13.3781C12.125 13.6313 11.975 13.8562 11.75 13.9875C11.525 14.1187 11.2532 14.1375 11.0188 14.0344L9.91255 13.5844C9.82817 13.5469 9.72505 13.5469 9.6313 13.5656C9.53755 13.5938 9.46255 13.6406 9.39692 13.7156L8.66567 14.6625C8.5063 14.8688 8.26255 14.9812 8.00005 14.9812C7.73755 14.9812 7.4938 14.8594 7.33442 14.6625L6.60317 13.7156C6.54692 13.6406 6.46255 13.5844 6.3688 13.5656C6.27505 13.5375 6.1813 13.5469 6.08755 13.5844L4.9813 14.0344C4.73755 14.1281 4.47505 14.1094 4.25005 13.9875C4.02505 13.8562 3.87505 13.6313 3.83755 13.3781L3.6688 12.1875C3.65942 12.0938 3.61255 12.0094 3.54692 11.9437C3.4813 11.8781 3.39692 11.8312 3.30317 11.8219L2.12192 11.6531C1.8688 11.6156 1.6438 11.4656 1.51255 11.2406C1.3813 11.0156 1.36255 10.7437 1.46567 10.5094L1.91567 9.40312C1.95317 9.31875 1.95317 9.21562 1.93442 9.12187C1.9063 9.02812 1.85942 8.95312 1.78442 8.8875L0.837549 8.15625C0.631299 7.99687 0.518799 7.75312 0.518799 7.49062C0.518799 7.22812 0.640674 6.98438 0.837549 6.825L1.78442 6.08437C1.85942 6.02812 1.91567 5.94375 1.93442 5.85C1.96255 5.75625 1.95317 5.6625 1.91567 5.56875L1.46567 4.4625C1.37192 4.21875 1.39067 3.95625 1.51255 3.73125C1.6438 3.50625 1.8688 3.35625 2.12192 3.31875L3.30317 3.15C3.39692 3.14062 3.4813 3.09375 3.54692 3.02813C3.61255 2.9625 3.65942 2.87812 3.6688 2.78437L3.83755 1.60313C3.87505 1.35 4.02505 1.125 4.25005 0.99375C4.47505 0.8625 4.74692 0.84375 4.9813 0.946875L6.08755 1.39688C6.17192 1.43438 6.27505 1.43438 6.3688 1.41562C6.46255 1.3875 6.53755 1.34063 6.60317 1.26562L7.33442 0.31875Z" fill="#4285F4"/>
<path fill-rule="evenodd" clip-rule="evenodd" d="M7.75625 7.54692L10.0906 5.20317C10.2687 5.02505 10.55 5.02505 10.7187 5.20317L11.3469 5.8313C11.525 6.00942 11.525 6.29067 11.3469 6.45942L8.23438 9.5813C8.23438 9.5813 8.21563 9.60942 8.20625 9.6188L7.57813 10.2469C7.49375 10.3313 7.37188 10.3782 7.25938 10.3782C7.14688 10.3782 7.03437 10.3313 6.94062 10.2469L6.3125 9.6188C6.3125 9.6188 6.29375 9.60005 6.28438 9.5813L4.65313 7.95005C4.475 7.77192 4.475 7.50005 4.65313 7.32192L5.28125 6.6938C5.45938 6.51567 5.74063 6.51567 5.90938 6.6938L7.14688 7.9313L7.25938 8.0438L8.525 9.29067L7.75625 7.54692Z" fill="white"/>
</g>
</g>
<defs>
<clipPath id="clip0_71_5606">
<rect width="15" height="15" fill="white" transform="translate(0.5)"/>
</clipPath>
<clipPath id="clip1_71_5606">
<rect width="15" height="15" fill="white" transform="translate(0.5)"/>
</clipPath>
</defs>
</svg>
